<?xml version="1.0" encoding="utf-8"?>
<!-- Generator: Adobe Illustrator 19.1.0, SVG Export Plug-In . SVG Version: 6.00 Build 0)  -->
<svg version="1.0" id="Layer_1" xmlns="http://www.w3.org/2000/svg" xmlns:xlink="http://www.w3.org/1999/xlink" x="0px" y="0px"
	 viewBox="0 0 792 612" enable-background="new 0 0 792 612" xml:space="preserve">
<rect x="36" y="90" fill="none" stroke="#000000" stroke-width="0.1" stroke-miterlimit="10" width="162" height="108"/>
<rect x="36" y="216" fill="none" stroke="#000000" stroke-width="0.1" stroke-miterlimit="10" width="162" height="108"/>
<rect x="36" y="342" fill="none" stroke="#000000" stroke-width="0.1" stroke-miterlimit="10" width="162" height="108"/>
<rect x="36" y="468" fill="none" stroke="#000000" stroke-width="0.1" stroke-miterlimit="10" width="162" height="108"/>
<rect x="414" y="90" fill="none" stroke="#000000" stroke-width="0.1" stroke-miterlimit="10" width="162" height="108"/>
<rect x="414" y="216" fill="none" stroke="#000000" stroke-width="0.1" stroke-miterlimit="10" width="162" height="108"/>
<rect x="414" y="342" fill="none" stroke="#000000" stroke-width="0.1" stroke-miterlimit="10" width="162" height="108"/>
<rect x="414" y="468" fill="none" stroke="#000000" stroke-width="0.1" stroke-miterlimit="10" width="162" height="108"/>
<g>
	<line fill="none" stroke="#000000" stroke-width="0.1" stroke-miterlimit="10" x1="216" y1="234" x2="378" y2="234"/>
	<line fill="none" stroke="#000000" stroke-width="0.1" stroke-miterlimit="10" x1="216" y1="252" x2="378" y2="252"/>
	<line fill="none" stroke="#000000" stroke-width="0.1" stroke-miterlimit="10" x1="216" y1="270" x2="378" y2="270"/>
	<line fill="none" stroke="#000000" stroke-width="0.1" stroke-miterlimit="10" x1="216" y1="288" x2="378" y2="288"/>
	<line fill="none" stroke="#000000" stroke-width="0.1" stroke-miterlimit="10" x1="216" y1="306" x2="378" y2="306"/>
	<line fill="none" stroke="#000000" stroke-width="0.1" stroke-miterlimit="10" x1="216" y1="324" x2="378" y2="324"/>
</g>
<g>
	<line fill="none" stroke="#000000" stroke-width="0.1" stroke-miterlimit="10" x1="216" y1="360" x2="378" y2="360"/>
	<line fill="none" stroke="#000000" stroke-width="0.1" stroke-miterlimit="10" x1="216" y1="378" x2="378" y2="378"/>
	<line fill="none" stroke="#000000" stroke-width="0.1" stroke-miterlimit="10" x1="216" y1="396" x2="378" y2="396"/>
	<line fill="none" stroke="#000000" stroke-width="0.1" stroke-miterlimit="10" x1="216" y1="414" x2="378" y2="414"/>
	<line fill="none" stroke="#000000" stroke-width="0.1" stroke-miterlimit="10" x1="216" y1="432" x2="378" y2="432"/>
	<line fill="none" stroke="#000000" stroke-width="0.1" stroke-miterlimit="10" x1="216" y1="450" x2="378" y2="450"/>
</g>
<g>
	<line fill="none" stroke="#000000" stroke-width="0.1" stroke-miterlimit="10" x1="216" y1="486" x2="378" y2="486"/>
	<line fill="none" stroke="#000000" stroke-width="0.1" stroke-miterlimit="10" x1="216" y1="504" x2="378" y2="504"/>
	<line fill="none" stroke="#000000" stroke-width="0.1" stroke-miterlimit="10" x1="216" y1="522" x2="378" y2="522"/>
	<line fill="none" stroke="#000000" stroke-width="0.1" stroke-miterlimit="10" x1="216" y1="540" x2="378" y2="540"/>
	<line fill="none" stroke="#000000" stroke-width="0.1" stroke-miterlimit="10" x1="216" y1="558" x2="378" y2="558"/>
	<line fill="none" stroke="#000000" stroke-width="0.1" stroke-miterlimit="10" x1="216" y1="576" x2="378" y2="576"/>
</g>
<g>
	<line fill="none" stroke="#000000" stroke-width="0.1" stroke-miterlimit="10" x1="216" y1="108" x2="378" y2="108"/>
	<line fill="none" stroke="#000000" stroke-width="0.1" stroke-miterlimit="10" x1="216" y1="126" x2="378" y2="126"/>
	<line fill="none" stroke="#000000" stroke-width="0.1" stroke-miterlimit="10" x1="216" y1="144" x2="378" y2="144"/>
	<line fill="none" stroke="#000000" stroke-width="0.1" stroke-miterlimit="10" x1="216" y1="162" x2="378" y2="162"/>
	<line fill="none" stroke="#000000" stroke-width="0.1" stroke-miterlimit="10" x1="216" y1="180" x2="378" y2="180"/>
	<line fill="none" stroke="#000000" stroke-width="0.1" stroke-miterlimit="10" x1="216" y1="198" x2="378" y2="198"/>
</g>
<g>
	<line fill="none" stroke="#000000" stroke-width="0.1" stroke-miterlimit="10" x1="594" y1="234" x2="756" y2="234"/>
	<line fill="none" stroke="#000000" stroke-width="0.1" stroke-miterlimit="10" x1="594" y1="252" x2="756" y2="252"/>
	<line fill="none" stroke="#000000" stroke-width="0.1" stroke-miterlimit="10" x1="594" y1="270" x2="756" y2="270"/>
	<line fill="none" stroke="#000000" stroke-width="0.1" stroke-miterlimit="10" x1="594" y1="288" x2="756" y2="288"/>
	<line fill="none" stroke="#000000" stroke-width="0.1" stroke-miterlimit="10" x1="594" y1="306" x2="756" y2="306"/>
	<line fill="none" stroke="#000000" stroke-width="0.1" stroke-miterlimit="10" x1="594" y1="324" x2="756" y2="324"/>
</g>
<g>
	<line fill="none" stroke="#000000" stroke-width="0.1" stroke-miterlimit="10" x1="594" y1="360" x2="756" y2="360"/>
	<line fill="none" stroke="#000000" stroke-width="0.1" stroke-miterlimit="10" x1="594" y1="378" x2="756" y2="378"/>
	<line fill="none" stroke="#000000" stroke-width="0.1" stroke-miterlimit="10" x1="594" y1="396" x2="756" y2="396"/>
	<line fill="none" stroke="#000000" stroke-width="0.1" stroke-miterlimit="10" x1="594" y1="414" x2="756" y2="414"/>
	<line fill="none" stroke="#000000" stroke-width="0.1" stroke-miterlimit="10" x1="594" y1="432" x2="756" y2="432"/>
	<line fill="none" stroke="#000000" stroke-width="0.1" stroke-miterlimit="10" x1="594" y1="450" x2="756" y2="450"/>
</g>
<g>
	<line fill="none" stroke="#000000" stroke-width="0.1" stroke-miterlimit="10" x1="594" y1="486" x2="756" y2="486"/>
	<line fill="none" stroke="#000000" stroke-width="0.1" stroke-miterlimit="10" x1="594" y1="504" x2="756" y2="504"/>
	<line fill="none" stroke="#000000" stroke-width="0.1" stroke-miterlimit="10" x1="594" y1="522" x2="756" y2="522"/>
	<line fill="none" stroke="#000000" stroke-width="0.1" stroke-miterlimit="10" x1="594" y1="540" x2="756" y2="540"/>
	<line fill="none" stroke="#000000" stroke-width="0.1" stroke-miterlimit="10" x1="594" y1="558" x2="756" y2="558"/>
	<line fill="none" stroke="#000000" stroke-width="0.1" stroke-miterlimit="10" x1="594" y1="576" x2="756" y2="576"/>
</g>
<g>
	<line fill="none" stroke="#000000" stroke-width="0.1" stroke-miterlimit="10" x1="594" y1="108" x2="756" y2="108"/>
	<line fill="none" stroke="#000000" stroke-width="0.1" stroke-miterlimit="10" x1="594" y1="126" x2="756" y2="126"/>
	<line fill="none" stroke="#000000" stroke-width="0.1" stroke-miterlimit="10" x1="594" y1="144" x2="756" y2="144"/>
	<line fill="none" stroke="#000000" stroke-width="0.1" stroke-miterlimit="10" x1="594" y1="162" x2="756" y2="162"/>
	<line fill="none" stroke="#000000" stroke-width="0.1" stroke-miterlimit="10" x1="594" y1="180" x2="756" y2="180"/>
	<line fill="none" stroke="#000000" stroke-width="0.1" stroke-miterlimit="10" x1="594" y1="198" x2="756" y2="198"/>
</g>
<g>
	<path d="M37.1,27.4h2.3c1.7,0,2.9,0.7,2.9,2.4v0c0,1.8-1.2,2.4-2.9,2.4h-1.6V36h-0.7V27.4z M39.4,31.8c1.4,0,2.2-0.6,2.2-1.9v0
		c0-1.4-0.9-1.9-2.2-1.9h-1.6v3.8H39.4z"/>
	<path d="M43.8,29.7h0.6V31c0.3-0.8,1-1.4,2.1-1.4v0.6c-1.2,0-2.1,0.6-2.1,2.3V36h-0.6V29.7z"/>
	<path d="M47.3,32.9L47.3,32.9c0-2,1.4-3.3,3-3.3c1.7,0,3,1.3,3,3.2v0.1c0,1.9-1.3,3.2-3,3.2C48.6,36.1,47.3,34.8,47.3,32.9z
		 M52.7,32.9L52.7,32.9c0-1.8-1-2.7-2.4-2.7c-1.3,0-2.4,1-2.4,2.7v0.1c0,1.6,1,2.6,2.4,2.6C51.6,35.6,52.7,34.5,52.7,32.9z"/>
	<path d="M54.8,29.7h0.6v1.2c0.3-0.7,1-1.3,2.1-1.3c0.9,0,1.7,0.4,1.9,1.4c0.4-0.9,1.3-1.4,2.2-1.4c1.2,0,2.1,0.7,2.1,2.4V36h-0.6
		v-4c0-1.3-0.6-1.9-1.6-1.9c-1,0-1.9,0.7-1.9,2V36H59v-4c0-1.3-0.6-1.9-1.6-1.9c-1,0-1.9,0.7-1.9,2V36h-0.6V29.7z"/>
	<path d="M65.7,29.7h0.6v1.5c0.4-0.8,1.3-1.6,2.4-1.6c1.6,0,2.8,1.2,2.8,3.2v0.1c0,2-1.2,3.2-2.8,3.2c-1.2,0-2.1-0.8-2.4-1.5v3.6
		h-0.6V29.7z M70.9,32.9L70.9,32.9c0-1.8-1-2.7-2.2-2.7c-1.2,0-2.3,0.9-2.3,2.7v0.1c0,1.7,1,2.6,2.4,2.6
		C70,35.6,70.9,34.6,70.9,32.9z"/>
	<path d="M73.3,34.5v-4.2h-0.9v-0.5h0.9v-1.4h0.6v1.4h1.6v0.5h-1.6v4.2c0,0.8,0.4,1.1,0.9,1.1c0.3,0,0.6-0.1,0.8-0.1V36
		c-0.2,0.1-0.4,0.1-0.8,0.1C73.8,36.1,73.3,35.5,73.3,34.5z"/>
	<path d="M77,31.7c0-0.3,0.2-0.5,0.5-0.5c0.3,0,0.5,0.2,0.5,0.5c0,0.3-0.2,0.5-0.5,0.5C77.2,32.2,77,31.9,77,31.7z M77,35.6
		c0-0.3,0.2-0.5,0.5-0.5c0.3,0,0.5,0.2,0.5,0.5c0,0.3-0.2,0.5-0.5,0.5C77.2,36.1,77,35.8,77,35.6z"/>
	<path d="M36.5,51.5h0.7c0.1,1.1,0.7,2,2.5,2c1.3,0,2.2-0.8,2.2-1.8c0-1.2-0.6-1.6-2.3-1.9c-1.9-0.3-2.8-0.9-2.8-2.3
		c0-1.3,1.1-2.2,2.7-2.2c1.6,0,2.6,0.8,2.8,2.2h-0.6c-0.2-1.1-0.9-1.6-2.1-1.6c-1.3,0-2.1,0.6-2.1,1.6c0,0.9,0.5,1.4,2.3,1.7
		c1.9,0.3,2.8,0.8,2.8,2.4c0,1.4-1.1,2.4-2.9,2.4C37.6,54.1,36.7,52.9,36.5,51.5z"/>
	<path d="M44.4,52.5v-4.2h-0.9v-0.5h0.9v-1.4h0.6v1.4h1.6v0.5h-1.6v4.2c0,0.8,0.4,1.1,0.9,1.1c0.3,0,0.6-0.1,0.8-0.1V54
		c-0.2,0.1-0.4,0.1-0.8,0.1C45,54.1,44.4,53.5,44.4,52.5z"/>
	<path d="M47.7,50.9L47.7,50.9c0-2,1.4-3.3,3-3.3c1.7,0,3,1.3,3,3.2v0.1c0,1.9-1.3,3.2-3,3.2C49.1,54.1,47.7,52.8,47.7,50.9z
		 M53.1,50.9L53.1,50.9c0-1.8-1-2.7-2.4-2.7c-1.3,0-2.4,1-2.4,2.7v0.1c0,1.6,1,2.6,2.4,2.6C52.1,53.6,53.1,52.5,53.1,50.9z"/>
	<path d="M55.3,47.7h0.6V49c0.3-0.8,1-1.4,2.1-1.4v0.6c-1.2,0-2.1,0.6-2.1,2.3V54h-0.6V47.7z"/>
	<path d="M61.3,53.5l-2.5-5.7h0.7l2.1,5l2-5h0.6l-3.5,8.5h-0.7L61.3,53.5z"/>
	<path d="M66.3,52.6V54h-0.6v-9.3h0.6v4.5c0.4-0.8,1.3-1.6,2.4-1.6c1.6,0,2.8,1.2,2.8,3.2v0.1c0,2-1.2,3.2-2.8,3.2
		C67.4,54.1,66.6,53.3,66.3,52.6z M70.8,50.9L70.8,50.9c0-1.8-1-2.7-2.2-2.7c-1.2,0-2.3,0.9-2.3,2.7v0.1c0,1.7,1,2.6,2.4,2.6
		C69.9,53.6,70.8,52.6,70.8,50.9z"/>
	<path d="M72.5,50.9L72.5,50.9c0-2,1.4-3.3,3-3.3c1.7,0,3,1.3,3,3.2v0.1c0,1.9-1.3,3.2-3,3.2C73.8,54.1,72.5,52.8,72.5,50.9z
		 M77.9,50.9L77.9,50.9c0-1.8-1-2.7-2.4-2.7c-1.3,0-2.4,1-2.4,2.7v0.1c0,1.6,1,2.6,2.4,2.6C76.9,53.6,77.9,52.5,77.9,50.9z"/>
	<path d="M79.6,52.3c0-1.5,1.4-1.9,2.9-1.9h1.3v-0.6c0-1.2-0.5-1.7-1.6-1.7c-0.9,0-1.6,0.4-1.8,1.3h-0.6c0.1-1.3,1.2-1.9,2.4-1.9
		c1.3,0,2.2,0.6,2.2,2.2V54h-0.6v-1c-0.4,0.6-1.1,1.1-2.1,1.1C80.5,54.1,79.6,53.5,79.6,52.3z M83.9,52v-1.1h-1.3
		c-1.3,0-2.3,0.3-2.3,1.4c0,0.8,0.5,1.3,1.5,1.3C82.9,53.6,83.9,52.9,83.9,52z"/>
	<path d="M86.4,47.7H87V49c0.3-0.8,1-1.4,2.1-1.4v0.6c-1.2,0-2.1,0.6-2.1,2.3V54h-0.6V47.7z"/>
	<path d="M89.9,51L89.9,51c0-2,1.3-3.3,2.9-3.3c1.2,0,1.9,0.7,2.3,1.5v-4.4h0.6V54h-0.6v-1.5c-0.3,0.8-1.2,1.5-2.4,1.5
		C91.1,54.1,89.9,52.9,89.9,51z M95.1,50.9L95.1,50.9c0-1.8-0.9-2.7-2.2-2.7c-1.3,0-2.3,1-2.3,2.7v0.1c0,1.7,1,2.6,2.2,2.6
		C94,53.6,95.1,52.6,95.1,50.9z"/>
	<path d="M97.6,49.7c0-0.3,0.2-0.5,0.5-0.5c0.3,0,0.5,0.2,0.5,0.5c0,0.3-0.2,0.5-0.5,0.5C97.8,50.2,97.6,49.9,97.6,49.7z M97.6,53.6
		c0-0.3,0.2-0.5,0.5-0.5c0.3,0,0.5,0.2,0.5,0.5c0,0.3-0.2,0.5-0.5,0.5C97.8,54.1,97.6,53.8,97.6,53.6z"/>
	<path d="M37.1,63.4h2.2c2.8,0,4.3,1.8,4.3,4.2v0.1c0,2.4-1.4,4.3-4.3,4.3h-2.2V63.4z M39.3,71.4c2.4,0,3.6-1.5,3.6-3.7v-0.1
		c0-2.1-1.1-3.7-3.6-3.7h-1.5v7.5H39.3z"/>
	<path d="M44.7,68.9L44.7,68.9c0-2,1.2-3.3,2.9-3.3c1.5,0,2.7,1,2.7,3.1v0.2h-5c0,1.7,0.8,2.6,2.3,2.6c1,0,1.8-0.4,2-1.3h0.6
		c-0.3,1.2-1.3,1.8-2.6,1.8C45.9,72.1,44.7,70.8,44.7,68.9z M49.7,68.4c-0.1-1.5-0.9-2.2-2.1-2.2c-1.2,0-2.1,0.9-2.2,2.2H49.7z"/>
	<path d="M51.4,70.1H52c0.1,0.9,0.6,1.4,1.8,1.4c1.1,0,1.6-0.5,1.6-1.2c0-0.8-0.5-1.1-1.6-1.3c-1.5-0.3-2.2-0.7-2.2-1.8
		c0-1.1,1-1.7,2.1-1.7c1.1,0,2,0.5,2.2,1.7h-0.6c-0.2-0.8-0.7-1.2-1.6-1.2c-0.9,0-1.5,0.4-1.5,1.1c0,0.7,0.4,1,1.7,1.2
		c1.3,0.2,2.1,0.6,2.1,1.8c0,1.1-0.8,1.8-2.2,1.8C52.3,72.1,51.5,71.3,51.4,70.1z"/>
	<path d="M57.4,63.9c0-0.2,0.2-0.4,0.5-0.4s0.4,0.2,0.4,0.4c0,0.3-0.2,0.5-0.4,0.5S57.4,64.2,57.4,63.9z M57.5,65.7h0.6V72h-0.6
		V65.7z"/>
	<path d="M59.8,72.4h0.6c0.2,0.8,0.8,1.4,2.1,1.4c1.3,0,2.3-0.6,2.3-2.2v-1.3c-0.3,0.8-1.2,1.5-2.4,1.5c-1.6,0-2.8-1.2-2.8-3v-0.1
		c0-1.8,1.3-3.1,2.9-3.1c1.2,0,1.9,0.7,2.3,1.5v-1.4h0.6v5.9c0,1.8-1.2,2.7-2.9,2.7C60.8,74.3,60,73.4,59.8,72.4z M64.9,68.8
		L64.9,68.8c0-1.7-0.9-2.6-2.2-2.6c-1.3,0-2.3,1-2.3,2.5v0.1c0,1.6,1,2.5,2.2,2.5C63.8,71.3,64.9,70.3,64.9,68.8z"/>
	<path d="M67.5,65.7h0.6V67c0.3-0.7,1.1-1.3,2.2-1.3c1.3,0,2.2,0.7,2.2,2.5V72h-0.6v-3.9c0-1.3-0.6-1.9-1.7-1.9c-1,0-2.1,0.7-2.1,2
		V72h-0.6V65.7z"/>
	<path d="M74,68.9L74,68.9c0-2,1.2-3.3,2.9-3.3c1.5,0,2.7,1,2.7,3.1v0.2h-5c0,1.7,0.8,2.6,2.3,2.6c1,0,1.8-0.4,2-1.3h0.6
		c-0.3,1.2-1.3,1.8-2.6,1.8C75.2,72.1,74,70.8,74,68.9z M79,68.4c-0.1-1.5-0.9-2.2-2.1-2.2c-1.2,0-2.1,0.9-2.2,2.2H79z"/>
	<path d="M81.1,65.7h0.6V67c0.3-0.8,1-1.4,2.1-1.4v0.6c-1.2,0-2.1,0.6-2.1,2.3V72h-0.6V65.7z"/>
	<path d="M85.1,67.7c0-0.3,0.2-0.5,0.5-0.5c0.3,0,0.5,0.2,0.5,0.5c0,0.3-0.2,0.5-0.5,0.5C85.3,68.2,85.1,67.9,85.1,67.7z M85.1,71.6
		c0-0.3,0.2-0.5,0.5-0.5c0.3,0,0.5,0.2,0.5,0.5c0,0.3-0.2,0.5-0.5,0.5C85.3,72.1,85.1,71.8,85.1,71.6z"/>
</g>
<g>
	<path d="M218.3,91.1l-2,1.4v-0.6l2.1-1.4h0.6V99h-0.7V91.1z"/>
</g>
<g>
	<path d="M216.2,224.8l3.4-3.6c0.9-0.9,1.3-1.7,1.3-2.6c0-1.1-0.7-1.8-1.8-1.8s-1.9,0.6-2.1,2h-0.6c0.1-1.6,1.2-2.6,2.7-2.6
		c1.5,0,2.5,0.9,2.5,2.3c0,1-0.6,2-1.6,3l-2.8,2.7h4.5v0.6h-5.6V224.8z"/>
</g>
<g>
	<path d="M216.4,348.6h0.6c0.1,1.1,0.8,2,2.3,2c1.4,0,2.1-0.7,2.1-1.9c0-1.1-0.6-1.8-2-1.8h-0.6v-0.6h0.6c1.2,0,1.7-0.7,1.7-1.6
		c0-1-0.6-1.7-1.8-1.7c-1.2,0-2,0.8-2.1,1.8h-0.6c0.1-1.3,1.2-2.4,2.7-2.4c1.5,0,2.4,1,2.4,2.3c0,0.9-0.6,1.6-1.4,1.9
		c1,0.2,1.7,1,1.7,2.2c0,1.6-1.2,2.5-2.8,2.5C217.5,351.1,216.5,349.9,216.4,348.6z"/>
</g>
<g>
	<path d="M220.8,475.1h-4.4v-0.2l4.1-6.4h0.9v6.1h1.2v0.6h-1.2v1.9h-0.7V475.1z M220.8,474.5v-5.6l-3.5,5.6H220.8z"/>
</g>
<g>
	<path d="M594.5,96.8h0.6c0.1,1,0.7,1.8,2.1,1.8c1.4,0,2.2-0.9,2.2-2.3c0-1.4-0.9-2.2-2.1-2.2c-1,0-1.7,0.4-2.1,0.9H595v-4.5h4.7V91
		h-4.1v3.1c0.4-0.4,1-0.7,1.9-0.7c1.5,0,2.6,1.1,2.6,2.8c0,1.8-1.2,2.9-2.9,2.9C595.5,99.1,594.6,98.1,594.5,96.8z"/>
</g>
<g>
	<path d="M594.7,221.5v-0.6c0-3.1,1.3-4.5,3.2-4.5c1.3,0,2.2,0.6,2.4,2h-0.6c-0.2-0.9-0.8-1.4-1.8-1.4c-1.5,0-2.5,1.1-2.5,3.8v0.3
		c0.4-0.9,1.4-1.5,2.4-1.5c1.8,0,2.8,1.2,2.8,2.7c0,1.7-1.1,2.8-2.9,2.8C595.5,225.1,594.7,223.5,594.7,221.5z M599.9,222.3
		c0-1.3-0.8-2.2-2.2-2.2c-1.2,0-2.2,0.8-2.2,2.1c0,1.3,0.8,2.4,2.3,2.4C599,224.6,599.9,223.6,599.9,222.3z"/>
</g>
<g>
	<path d="M599,343h-4.6v-0.6h5.5v0.1l-3.3,8.5h-0.7L599,343z"/>
</g>
<g>
	<path d="M594.6,474.6c0-1.2,0.8-2,1.9-2.3c-0.9-0.3-1.5-0.9-1.5-1.9c0-1.3,1.2-2.2,2.5-2.2c1.3,0,2.5,0.9,2.5,2.1
		c0,1-0.6,1.6-1.5,1.9c1.1,0.3,1.9,1,1.9,2.2c0,1.7-1.3,2.5-2.9,2.5C596,477.1,594.6,476.3,594.6,474.6z M599.7,474.6
		c0-1.2-1-1.9-2.2-1.9c-1.2,0-2.2,0.7-2.2,1.9c0,1.3,1,1.9,2.2,1.9C598.8,476.5,599.7,475.9,599.7,474.6z M599.3,470.5
		c0-0.9-0.8-1.6-1.8-1.6c-1.1,0-1.8,0.6-1.8,1.6c0,1.1,0.9,1.6,1.9,1.6C598.6,472.1,599.3,471.5,599.3,470.5z"/>
</g>
</svg>
